<?xml version="1.0" encoding="utf-8"?>
<!-- Generator: Adobe Illustrator 19.0.0, SVG Export Plug-In . SVG Version: 6.00 Build 0)  -->
<!DOCTYPE svg PUBLIC "-//W3C//DTD SVG 1.1//EN" "http://www.w3.org/Graphics/SVG/1.1/DTD/svg11.dtd">
<svg version="1.1" id="Layer_1" xmlns="http://www.w3.org/2000/svg" xmlns:xlink="http://www.w3.org/1999/xlink" x="0px" y="0px"
	 viewBox="0 0 200 250" enable-background="new 0 0 200 250" xml:space="preserve">
<g id="XMLID_1201_">
	<rect id="XMLID_1225_" x="0" y="0" display="none" fill="#FFFFFF" width="200" height="250"/>
	<path id="XMLID_556_" fill="#FFFFFF" d="M145.9,11.2c-11.6,7.1-21.6,16.3-29.5,27c-5.2-1.4-10.8-2.1-16.4-2.1s-11.2,0.7-16.5,2.1
		c-7.9-10.7-17.9-19.9-29.5-27C67.8,4,83.4,0,100,0S132.2,4,145.9,11.2z"/>
	<g id="XMLID_422_" display="none">
		<path id="XMLID_430_" display="inline" fill="#FFFFFF" d="M42,185.1c-0.2-3,0.3-6,1.6-8.9c3.1-6.9,9.7-11.2,17.2-11.2h20.7
			c-2.5-1.1-4.8-2.5-7-4.1c-2.2-1.6-4.2-3.3-6.1-5.2C49.1,144.7,36,123.8,36,100c0-28.1,18.2-52.1,43.5-60.6
			c-8-10.5-18-19.3-29.5-26C20.1,30.7,0,63,0,100c0,24.8,9,47.5,24,65C24,165,31.6,173.5,42,185.1z"/>
		<path id="XMLID_427_" display="inline" fill="#FFFFFF" d="M176.7,164.1L176.7,164.1c1.3-6.9-0.1-14.1-4.1-20.4
			c-3.9-6.1-10-10.3-17.1-11.9c5.4-9.4,8.4-20.2,8.4-31.8c0-28.1-18.2-52.1-43.5-60.6h0h0c8-10.5,18-19.3,29.5-26
			c29.9,17.3,50,49.6,50,86.6C200,124.4,191.3,146.8,176.7,164.1L176.7,164.1z"/>
		<line id="XMLID_1176_" display="inline" fill="#FFFFFF" x1="71" y1="152.5" x2="71" y2="152.5"/>
		<path id="XMLID_1177_" display="inline" fill="#FFFFFF" d="M100,169c-0.2,0-0.5,0-0.8,0"/>
		<path id="XMLID_739_" display="inline" fill="#FFFFFF" d="M100,165c-22.1,0-40-17.9-40-40l0,0c-1.3,8-0.1,15.6,3,22.2
			c-14-11-23-28.1-23-47.2c0-33.1,26.9-60,60-60c33.1,0,60,26.9,60,60c0,11.4-3.2,22-8.7,31.1h0c-0.8-0.1-1.6-0.1-2.4-0.1h-6.8
			c0-2.2-0.7-5.1-2.1-7.5c0,3.4-0.4,8.3-1.3,11.5h10.2c1.5,0,2.9,0.1,4.4,0.4c6.5,1.1,12.4,4.8,15.9,10.4c6.1,9.5,5,21.1-2.2,29.2
			L100,250l-50.2-56.2C41.2,184.2,48,169,60.9,169l37.8,0h19.5c0.1,0,0.2,0,0.3,0c2.7,0.3,3.7,3.8,1.4,5.5
			c-3.7,2.6-7.1,5.9-10.1,9.7c-2.9,3.8-5.5,8.2-7.5,13.1c-0.9,2.2-3.8,2.8-5.5,1.1c-6.5-6.4-14-9-14.4-9.1
			c0.4,0.3,7.4,5.6,12.3,11.7c1.9,2.4,4.6,3.8,7.4,2.6c1.8-0.8,3.3-3,4-4.8c3.8-9.1,12.2-17.8,18.3-22.8c0.1,0,0.1-0.1,0.2-0.1
			c2.3-1.8,2.7-4.6,1.9-6.9c-0.8-2.2-2.9-4-5.7-4L100,165L100,165z"/>
	</g>
	<path id="XMLID_1180_" fill="#FFFFFF" d="M42,185.1c-0.2-3,0.3-6,1.6-8.9c3.1-6.9,9.7-11.2,17.2-11.2h20.7c-2.5-1.1-4.8-2.5-7-4.1
		c-2.2-1.6-4.2-3.3-6.1-5.2C49.1,144.7,36,123.8,36,100c0-28.1,18.2-52.1,43.5-60.6c-8-10.5-18-19.3-29.5-26C20.1,30.7,0,63,0,100
		c0,24.8,9,47.5,24,65C24,165,31.6,173.5,42,185.1z"/>
	<path id="XMLID_1179_" fill="#FFFFFF" d="M176.7,164.1L176.7,164.1c1.3-6.9-0.1-14.1-4.1-20.4c-3.9-6.1-10-10.3-17.1-11.9
		c5.4-9.4,8.4-20.2,8.4-31.8c0-28.1-18.2-52.1-43.5-60.6h0h0c8-10.5,18-19.3,29.5-26c29.9,17.3,50,49.6,50,86.6
		C200,124.4,191.3,146.8,176.7,164.1L176.7,164.1z"/>
	<path id="XMLID_1186_" fill="#FFFFFF" d="M169.3,145.8c-3.6-5.6-9.5-9.3-16-10.4c-1.4-0.3-2.9-0.4-4.4-0.4h-10.2
		c0.8-3.2,1.3-8.1,1.3-11.5c1.4,2.4,2.1,5.3,2.1,7.5h6.8c0.8,0,1.6,0,2.4,0.1h0c5.5-9.1,8.7-19.7,8.7-31.1c0-33.1-26.9-60-60-60
		c-33.1,0-60,26.9-60,60c0,19.1,9,36.2,23,47.2c-2.3-4.8-3.5-10.1-3.5-15.8c0-2.1,0.2-4.2,0.5-6.4c0,22.1,17.9,40,40,40h20.7
		c2.9,0,4.9,1.8,5.7,4c0.8,2.3,0.4,5-1.9,6.9c0,0-0.1,0.1-0.2,0.1c-6.1,4.9-14.5,13.7-18.3,22.8c-0.7,1.8-2.2,4-4,4.8
		c-2.9,1.3-5.5-0.2-7.4-2.6c-4.8-6.1-11.8-11.4-12.3-11.7c0.5,0.1,8,2.8,14.4,9.1c1.7,1.7,4.6,1.2,5.5-1.1c2-4.9,4.5-9.3,7.5-13.2
		c3-3.8,6.3-7.1,10.1-9.7c2.3-1.6,1.3-5.2-1.4-5.5c-0.1,0-0.2,0-0.3,0H98.7l-37.8,0c-12.9,0-19.7,15.2-11.1,24.8L100,250l67.1-75
		C174.3,166.9,175.3,155.3,169.3,145.8z M72.7,95c-7.8,0-12.7,7.6-11.7,3c1-4.6,5.2-8.1,11.7-8.1c6.5,0,10.7,3.5,11.7,8.1
		C85.4,102.7,80.4,95,72.7,95z M115.6,98.1c1-4.6,5.2-8.1,11.7-8.1c6.5,0,10.7,3.5,11.7,8.1c1,4.6-3.9-3-11.7-3
		S114.6,102.7,115.6,98.1z"/>
</g>
</svg>
