<svg id="Layer_1" data-name="Layer 1" xmlns="http://www.w3.org/2000/svg" viewBox="0 0 400 378.48"><defs><style>.cls-1{fill:#fff;}</style></defs><title>everything_else</title><path d="M1654.51,165.52l-48.08-33.86,48.08-33.88A13,13,0,0,0,1652,75.24L1535.56,26.82a20.22,20.22,0,0,0-18,1.22,42.19,42.19,0,0,1,3.57,8.57l0.25-.18a11.07,11.07,0,0,1,10.71-1.19l116.47,48.42a3.82,3.82,0,0,1,.73,6.66l-51.31,36.14-92.77-38.55c-2.78,2.45-5.59,4.59-8.17,6.48l89.63,37.26-108.29,45a0.07,0.07,0,0,1-.05,0l-7.26,3-0.08,0L1460,184.29h0l-126.62-52.64,99.13-41.21a38.33,38.33,0,0,1,5.07-12l-115.5,48-51.31-36.14a3.82,3.82,0,0,1,.73-6.66l116.47-48.42a11.19,11.19,0,0,1,4.29-.86,11.06,11.06,0,0,1,5.65,1.55l5.92-7a20.17,20.17,0,0,0-19.36-2.08L1268,75.24a13,13,0,0,0-2.49,22.54l48.08,33.88-48.08,33.86a13,13,0,0,0,2.49,22.54l49,20.35v111a18.13,18.13,0,0,0,11.22,16.79l123.54,51.36a21.87,21.87,0,0,0,16.63,0l123.54-51.36a18.13,18.13,0,0,0,11.22-16.79v-111l49-20.35A13,13,0,0,0,1654.51,165.52Zm-337.59,33-45.45-18.89a3.82,3.82,0,0,1-.73-6.66l46.18-32.52,5.13-3.62,4,1.65,124.56,51.78-51.95,36.61a11.09,11.09,0,0,1-10.71,1.17L1326,202.31Zm14.71,129.3a9.07,9.07,0,0,1-5.59-8.38V212.2l58.4,24.27a20.2,20.2,0,0,0,19.47-2.15l51.53-36.3V379.27l-0.26-.1ZM1594,319.44a9.07,9.07,0,0,1-5.59,8.38l-123.54,51.35-0.26.1V198l51.53,36.3a20.2,20.2,0,0,0,19.47,2.15L1594,212.2V319.44Zm56.9-142.92a3.74,3.74,0,0,1-2.33,3.1l-45.45,18.89-9.12,3.79L1532.05,228a11.09,11.09,0,0,1-10.71-1.17l-51.95-36.61L1594,138.48l4-1.65,5.13,3.62L1649.25,173A3.76,3.76,0,0,1,1650.85,176.53Z" transform="translate(-1260 -10.76)"/><path d="M1333.37,131.66L1460,184.29h0Z" transform="translate(-1260 -10.76)"/><path d="M1460,184.28h0l10.94-4.56Z" transform="translate(-1260 -10.76)"/><path class="cls-1" d="M1463,135.94a13.31,13.31,0,1,0,13.3,13.3A13.49,13.49,0,0,0,1463,135.94Z" transform="translate(-1260 -10.76)"/><path class="cls-1" d="M1463,135.94a13.31,13.31,0,1,0,13.3,13.3A13.49,13.49,0,0,0,1463,135.94Z" transform="translate(-1260 -10.76)"/><path d="M1463,126.82a22.43,22.43,0,1,0,22.42,22.42A22.73,22.73,0,0,0,1463,126.82Zm0,35.74a13.31,13.31,0,1,1,13.3-13.32A13.49,13.49,0,0,1,1463,162.56Z" transform="translate(-1260 -10.76)"/><path d="M1513.07,42.28a34.67,34.67,0,0,0-3.19-8.92c-7.34-14-24.2-22.59-46.45-22.59-20.63,0-39.5,8.39-51.82,23l-0.33.38-2.22,2.63,16.64,18.68,7.41,8.34,1.62-2,1.77-2.18a36.58,36.58,0,0,1,4.46-4.61c0.42-.36.86-0.73,1.32-1.08a29.62,29.62,0,0,1,7.82-4.48,27.68,27.68,0,0,1,10-1.82c3.87,0,12.86.78,12.86,8,0,2-1.16,3.91-3,5.78a63.46,63.46,0,0,1-8,6.31l-1.45,1c-0.76.53-1.52,1.09-2.29,1.65-1,.72-1.94,1.46-2.91,2.23-1.16.93-2.32,1.9-3.43,2.93a36.51,36.51,0,0,0-7.93,10.07,30.61,30.61,0,0,0-3.36,14.35,33.48,33.48,0,0,0,8.47,22.71l1.92,2.1,33.28-9.68-3.88-5.26c-2-2.78-3.3-4.57-3.3-6.55,0-4.78,3.79-8.3,10.14-13.06l2.64-1.94c1.9-1.38,3.88-2.83,5.86-4.4,9.17-7.21,18.2-16.79,18.2-33.77A38.12,38.12,0,0,0,1513.07,42.28ZM1485.93,79.9l-1.5,1.09c-2.35,1.71-4.72,3.44-6.91,5.3-5.37,4.51-9.62,9.72-9.62,17.06a14.66,14.66,0,0,0,1.6,6.59L1454,114.46a24.58,24.58,0,0,1-4.35-14.41c0-9.55,5.28-15.48,11.65-20.48,1.06-.85,2.14-1.65,3.24-2.45,0.87-.64,1.76-1.26,2.63-1.89l1.17-.83,1.58-1.13a59.73,59.73,0,0,0,5.73-4.64c3.73-3.52,6.42-7.58,6.42-12.92a19.05,19.05,0,0,0-.18-2.64c-1.54-10.63-12.4-14.49-21.8-14.49a37.79,37.79,0,0,0-26.79,11.14,3.11,3.11,0,0,0-.31.29l-1.21-1.37-10.57-11.87c10.54-10.76,25.69-16.87,42.19-16.87,19.39,0,33.47,7.09,38.88,18.8a26,26,0,0,1,2.37,9.5c0.05,0.65.08,1.33,0.08,2C1504.76,65.39,1495.43,72.95,1485.93,79.9Z" transform="translate(-1260 -10.76)"/></svg>