<svg id="Layer_1" data-name="Layer 1" xmlns="http://www.w3.org/2000/svg" viewBox="0 0 400 400"><title>everything_else2</title><path d="M79.06,247a47,47,0,1,1,47-47A47.09,47.09,0,0,1,79.06,247Zm0-83.59A36.55,36.55,0,1,0,115.61,200,36.59,36.59,0,0,0,79.06,163.45Z"/><path d="M200,247a47,47,0,1,1,47-47A47.09,47.09,0,0,1,200,247Zm0-83.59A36.55,36.55,0,1,0,236.55,200,36.59,36.59,0,0,0,200,163.45Z"/><path d="M320.94,247a47,47,0,1,1,47-47A47.09,47.09,0,0,1,320.94,247Zm0-83.59A36.55,36.55,0,1,0,357.48,200,36.59,36.59,0,0,0,320.94,163.45Z"/></svg>