<svg id="Layer_1" data-name="Layer 1" xmlns="http://www.w3.org/2000/svg" viewBox="0 0 400 334.93"><title>Furniture</title><path d="M778.67,323v0.19H792V323H778.67ZM448,323v0.19h13.33V323H448Z" transform="translate(-420 -32.53)"/><path d="M804,32.53H436a16,16,0,0,0-16,16V307.2a16,16,0,0,0,16,16h2.67v28.27a16,16,0,0,0,32,0V323.2H769.33v28.27a16,16,0,0,0,32,0V323.2H804a16,16,0,0,0,16-16V48.53A16,16,0,0,0,804,32.53ZM461.33,351.47a6.67,6.67,0,1,1-13.33,0V323h13.33v28.45Zm330.67,0a6.67,6.67,0,1,1-13.33,0V323H792v28.45Zm18.67-44.27a6.67,6.67,0,0,1-6.67,6.67H436a6.67,6.67,0,0,1-6.67-6.67v-78H810.67v78Zm0-87.33H429.33v-84H810.67v84Zm0-93.33H429.33v-78A6.67,6.67,0,0,1,436,41.87H804a6.67,6.67,0,0,1,6.67,6.67v78Z" transform="translate(-420 -32.53)"/><path d="M620,162.53a15.33,15.33,0,1,0,15.33,15.33A15.34,15.34,0,0,0,620,162.53Zm0,21.33a6,6,0,1,1,6-6A6,6,0,0,1,620,183.87Z" transform="translate(-420 -32.53)"/><path d="M620,69.2a15.33,15.33,0,1,0,15.33,15.33A15.34,15.34,0,0,0,620,69.2Zm0,21.33a6,6,0,1,1,6-6A6,6,0,0,1,620,90.53Z" transform="translate(-420 -32.53)"/><path d="M620,255.87a15.33,15.33,0,1,0,15.33,15.33A15.34,15.34,0,0,0,620,255.87Zm0,21.33a6,6,0,1,1,6-6A6,6,0,0,1,620,277.2Z" transform="translate(-420 -32.53)"/></svg>