<?xml version="1.0" encoding="utf-8"?>
<!-- Generator: Adobe Illustrator 19.0.0, SVG Export Plug-In . SVG Version: 6.00 Build 0)  -->
<!DOCTYPE svg PUBLIC "-//W3C//DTD SVG 1.1//EN" "http://www.w3.org/Graphics/SVG/1.1/DTD/svg11.dtd">
<svg version="1.1" id="Layer_1" xmlns="http://www.w3.org/2000/svg" xmlns:xlink="http://www.w3.org/1999/xlink" x="0px" y="0px"
	 viewBox="-1899 876 200 250" enable-background="new -1899 876 200 250" xml:space="preserve">
<g id="XMLID_1201_">
	<rect id="XMLID_1225_" x="-1899" y="876" display="none" fill="#FFFFFF" width="200" height="250"/>
	<path id="XMLID_556_" fill="#133470" d="M-1753.1,887.2c-11.6,7.1-21.6,16.3-29.5,27c-5.2-1.4-10.8-2.1-16.4-2.1
		s-11.2,0.7-16.5,2.1c-7.9-10.7-17.9-19.9-29.5-27c13.8-7.2,29.4-11.2,46-11.2S-1766.8,880-1753.1,887.2z"/>
	<g id="XMLID_422_" display="none">
		<path id="XMLID_430_" display="inline" fill="#FFFFFF" d="M-1857,1061.1c-0.2-3,0.3-6,1.6-8.9c3.1-6.9,9.7-11.2,17.2-11.2h20.7
			c-2.5-1.1-4.8-2.5-7-4.1s-4.2-3.3-6.1-5.2c-19.3-11-32.4-31.9-32.4-55.7c0-28.1,18.2-52.1,43.5-60.6c-8-10.5-18-19.3-29.5-26
			c-29.9,17.3-50,49.6-50,86.6c0,24.8,9,47.5,24,65C-1875,1041-1867.4,1049.5-1857,1061.1z"/>
		<path id="XMLID_427_" display="inline" fill="#FFFFFF" d="M-1722.3,1040.1L-1722.3,1040.1c1.3-6.9-0.1-14.1-4.1-20.4
			c-3.9-6.1-10-10.3-17.1-11.9c5.4-9.4,8.4-20.2,8.4-31.8c0-28.1-18.2-52.1-43.5-60.6l0,0l0,0c8-10.5,18-19.3,29.5-26
			c29.9,17.3,50,49.6,50,86.6C-1699,1000.4-1707.7,1022.8-1722.3,1040.1L-1722.3,1040.1z"/>
		<line id="XMLID_1176_" display="inline" fill="none" x1="-1828" y1="1028.5" x2="-1828" y2="1028.5"/>
		<path id="XMLID_1177_" display="inline" fill="#FFFFFF" d="M-1799,1045c-0.2,0-0.5,0-0.8,0"/>
		<path id="XMLID_739_" display="inline" fill="#FFFFFF" d="M-1799,1041c-22.1,0-40-17.9-40-40l0,0c-1.3,8-0.1,15.6,3,22.2
			c-14-11-23-28.1-23-47.2c0-33.1,26.9-60,60-60s60,26.9,60,60c0,11.4-3.2,22-8.7,31.1l0,0c-0.8-0.1-1.6-0.1-2.4-0.1h-6.8
			c0-2.2-0.7-5.1-2.1-7.5c0,3.4-0.4,8.3-1.3,11.5h10.2c1.5,0,2.9,0.1,4.4,0.4c6.5,1.1,12.4,4.8,15.9,10.4c6.1,9.5,5,21.1-2.2,29.2
			l-67,75l-50.2-56.2c-8.6-9.6-1.8-24.8,11.1-24.8h37.8h19.5c0.1,0,0.2,0,0.3,0c2.7,0.3,3.7,3.8,1.4,5.5c-3.7,2.6-7.1,5.9-10.1,9.7
			c-2.9,3.8-5.5,8.2-7.5,13.1c-0.9,2.2-3.8,2.8-5.5,1.1c-6.5-6.4-14-9-14.4-9.1c0.4,0.3,7.4,5.6,12.3,11.7c1.9,2.4,4.6,3.8,7.4,2.6
			c1.8-0.8,3.3-3,4-4.8c3.8-9.1,12.2-17.8,18.3-22.8c0.1,0,0.1-0.1,0.2-0.1c2.3-1.8,2.7-4.6,1.9-6.9c-0.8-2.2-2.9-4-5.7-4H-1799
			L-1799,1041z"/>
	</g>
	<path id="XMLID_1180_" fill="#133470" d="M-1857,1061.1c-0.2-3,0.3-6,1.6-8.9c3.1-6.9,9.7-11.2,17.2-11.2h20.7
		c-2.5-1.1-4.8-2.5-7-4.1s-4.2-3.3-6.1-5.2c-19.3-11-32.4-31.9-32.4-55.7c0-28.1,18.2-52.1,43.5-60.6c-8-10.5-18-19.3-29.5-26
		c-29.9,17.3-50,49.6-50,86.6c0,24.8,9,47.5,24,65C-1875,1041-1867.4,1049.5-1857,1061.1z"/>
	<path id="XMLID_1179_" fill="#133470" d="M-1722.3,1040.1L-1722.3,1040.1c1.3-6.9-0.1-14.1-4.1-20.4c-3.9-6.1-10-10.3-17.1-11.9
		c5.4-9.4,8.4-20.2,8.4-31.8c0-28.1-18.2-52.1-43.5-60.6l0,0l0,0c8-10.5,18-19.3,29.5-26c29.9,17.3,50,49.6,50,86.6
		C-1699,1000.4-1707.7,1022.8-1722.3,1040.1L-1722.3,1040.1z"/>
	<path id="XMLID_1186_" fill="#133470" d="M-1729.7,1021.8c-3.6-5.6-9.5-9.3-16-10.4c-1.4-0.3-2.9-0.4-4.4-0.4h-10.2
		c0.8-3.2,1.3-8.1,1.3-11.5c1.4,2.4,2.1,5.3,2.1,7.5h6.8c0.8,0,1.6,0,2.4,0.1l0,0c5.5-9.1,8.7-19.7,8.7-31.1c0-33.1-26.9-60-60-60
		s-60,26.9-60,60c0,19.1,9,36.2,23,47.2c-2.3-4.8-3.5-10.1-3.5-15.8c0-2.1,0.2-4.2,0.5-6.4c0,22.1,17.9,40,40,40h20.7
		c2.9,0,4.9,1.8,5.7,4c0.8,2.3,0.4,5-1.9,6.9c0,0-0.1,0.1-0.2,0.1c-6.1,4.9-14.5,13.7-18.3,22.8c-0.7,1.8-2.2,4-4,4.8
		c-2.9,1.3-5.5-0.2-7.4-2.6c-4.8-6.1-11.8-11.4-12.3-11.7c0.5,0.1,8,2.8,14.4,9.1c1.7,1.7,4.6,1.2,5.5-1.1c2-4.9,4.5-9.3,7.5-13.2
		c3-3.8,6.3-7.1,10.1-9.7c2.3-1.6,1.3-5.2-1.4-5.5c-0.1,0-0.2,0-0.3,0h-19.4h-37.8c-12.9,0-19.7,15.2-11.1,24.8l50.2,56.3l67.1-75
		C-1724.7,1042.9-1723.7,1031.3-1729.7,1021.8z M-1826.3,971c-7.8,0-12.7,7.6-11.7,3s5.2-8.1,11.7-8.1s10.7,3.5,11.7,8.1
		C-1813.6,978.7-1818.6,971-1826.3,971z M-1783.4,974.1c1-4.6,5.2-8.1,11.7-8.1s10.7,3.5,11.7,8.1c1,4.6-3.9-3-11.7-3
		C-1779.5,971.1-1784.4,978.7-1783.4,974.1z"/>
</g>
</svg>
