<?xml version="1.0" encoding="utf-8"?>
<!-- Generator: Adobe Illustrator 19.0.0, SVG Export Plug-In . SVG Version: 6.00 Build 0)  -->
<!DOCTYPE svg PUBLIC "-//W3C//DTD SVG 1.1//EN" "http://www.w3.org/Graphics/SVG/1.1/DTD/svg11.dtd">
<svg version="1.1" id="Layer_1" xmlns="http://www.w3.org/2000/svg" xmlns:xlink="http://www.w3.org/1999/xlink" x="0px" y="0px"
	 viewBox="0 0 250 250" enable-background="new 0 0 250 250" xml:space="preserve">
<g id="XMLID_1_">
	<path id="XMLID_581_" fill="#FFFFFF" d="M193.7,146.7c-3.3-5.3-8.9-8.9-15.3-10c-1.4-0.2-2.8-0.4-4.2-0.4h-11.5l0.3-1.3
		c0.8-3.3,1.2-8.2,1.2-11.3v-3.7c0,0,3.4,5.9,3.6,10.2h6.4c0.7,0,1.3,0,1.8,0.1c5.4-9.1,8.3-19.5,8.3-30.2
		c0-32.7-26.6-59.2-59.2-59.2c-32.7,0-59.2,26.6-59.2,59.2c0,16.9,7.1,32.7,19.6,44c-1.4-4-1.4-9.3-1.5-11.5
		c-0.1-2.2,1.1-10.2,1.1-10.2c0,21.6,18.5,41.9,40.1,41.9h20.8c3,0,5.7,1.8,6.7,4.7c1.1,2.9,0.2,6.1-2.2,8l-0.2,0.1
		c-6,4.8-14.4,13.6-18.1,22.5c-0.8,1.9-2.4,4.4-4.5,5.3c-0.8,0.4-1.7,0.6-2.6,0.6c-2.2,0-4.6-1-6.1-3.4
		c-4.5-7.3-13.2-13.2-13.2-13.2s10,2.5,16.8,9.3c0.5,0.5,1.1,0.7,1.7,0.7c1,0,1.8-0.6,2.2-1.5c2-5,4.6-9.5,7.6-13.4
		c3-4,6.5-7.3,10.3-9.9c0.7-0.5,1-1.3,0.8-2.2c-0.2-0.7-0.7-1.4-1.7-1.5c-0.1,0-0.2,0-0.3,0h-19.5l-38,0c-5.6,0-10.5,3.2-12.8,8.3
		c-2.3,5.1-1.4,10.8,2.3,15l49.7,55.6l66.6-74.5C198.7,166.8,199.5,155.8,193.7,146.7z M97.6,95.2c-8.2,0-13.4,8-12.3,3.2
		c1.1-4.8,5.5-8.6,12.3-8.6c6.8,0,11.2,3.7,12.3,8.6C111,103.2,105.8,95.2,97.6,95.2z M152.4,95.2c-8.2,0-13.4,8-12.3,3.2
		c1.1-4.8,5.5-8.6,12.3-8.6c6.8,0,11.2,3.7,12.3,8.6C165.9,103.2,160.6,95.2,152.4,95.2z"/>
	<path id="XMLID_571_" fill="#FFFFFF" d="M108.9,36.9c-7.7-10.3-17.1-19-28-25.9C94.7,4.2,109.5,0.8,125,0.8
		c15.3,0,30.5,3.6,44.1,10.3c-10.8,6.8-20.2,15.5-28,25.9c-5.2-1.3-10.6-2-16.1-2C119.5,34.9,114.1,35.6,108.9,36.9z"/>
	<path id="XMLID_567_" fill="#FFFFFF" d="M49.5,164.8c-15.4-18-23.9-40.9-23.9-64.6c0-35.2,18.8-68,49.2-85.8
		c10.8,6.4,20.2,14.6,28,24.4c-25.8,9.4-43,33.8-43,61.4c0,23.4,12.7,45.1,33,56.7c1.9,1.9,4,3.7,6.2,5.3c1.1,0.8,2.3,1.6,3.5,2.3
		H85.7c-8,0-15,4.5-18.2,11.8c-1,2.2-1.6,4.5-1.7,6.8C60.5,177.1,49.5,164.9,49.5,164.8z"/>
	<path id="XMLID_566_" fill="#FFFFFF" d="M203.5,161.2c0.4-6.2-1.3-12.3-4.7-17.7c-3.8-5.9-9.6-10.2-16.5-12.1
		c5.2-9.5,8-20.3,8-31.2c0-27.5-17.2-52-43-61.4c7.7-9.9,17.1-18.1,28-24.4c30.4,17.8,49.2,50.6,49.2,85.8
		C224.4,122.3,217,143.8,203.5,161.2z"/>
</g>
</svg>
