<svg id="Layer_1" data-name="Layer 1" xmlns="http://www.w3.org/2000/svg" viewBox="0 0 400 329.2"><title>House</title><path d="M395.44,355.48H373.32V195.22h3.34a15,15,0,0,0,12.7-22.92L329.51,76.44V40A4.56,4.56,0,0,0,325,35.4H290.76A4.57,4.57,0,0,0,286.2,40V62.75H95.28A29.16,29.16,0,0,0,70.42,76.53L10.64,172.3a15,15,0,0,0,12.7,22.92H32V355.48H4.56a4.56,4.56,0,0,0,0,9.12H395.44A4.56,4.56,0,0,0,395.44,355.48ZM95.28,71.87H286.2v56.69a4.56,4.56,0,0,0,9.12,0v-84h25.07v84a4.56,4.56,0,0,0,9.12,0V93.65l52.1,83.47a5.87,5.87,0,0,1-5,9H172.29a20.1,20.1,0,0,1-17.13-9.5l-52.6-84.26L90.18,72.52A20.1,20.1,0,0,1,95.28,71.87ZM23.35,186.1a5.87,5.87,0,0,1-5-9L78.16,81.37a20,20,0,0,1,3.93-4.59L92.18,92.93,34,186.1H23.35ZM180.59,355.48H122.31V231.17H95.65V355.48H41.11V192l56.44-90.42,49.86,79.88a29.16,29.16,0,0,0,24.87,13.8h8.3V355.48Zm183.61,0H189.71V195.22H364.2V355.48Z" transform="translate(0 -35.4)"/><rect x="263.62" y="195.77" width="26.67" height="69.86"/></svg>